<svg xmlns="http://www.w3.org/2000/svg" viewBox="0 0 390 844" width="390" height="844">
  <defs>
    <linearGradient id="hero1" x1="0" y1="0" x2="0" y2="1">
      <stop offset="0%" stop-color="#0A0A0F" stop-opacity="0"/>
      <stop offset="60%" stop-color="#0A0A0F" stop-opacity="0.7"/>
      <stop offset="100%" stop-color="#0A0A0F" stop-opacity="1"/>
    </linearGradient>
    <linearGradient id="redGrad" x1="0" y1="0" x2="1" y2="0">
      <stop offset="0%" stop-color="#E50914"/>
      <stop offset="100%" stop-color="#B20710"/>
    </linearGradient>
    <clipPath id="phoneClip">
      <rect x="0" y="0" width="390" height="844" rx="0"/>
    </clipPath>
    <clipPath id="heroClip">
      <rect x="16" y="112" width="358" height="210" rx="16"/>
    </clipPath>
    <clipPath id="card1">
      <rect x="16" y="372" width="112" height="168" rx="10"/>
    </clipPath>
    <clipPath id="card2">
      <rect x="140" y="372" width="112" height="168" rx="10"/>
    </clipPath>
    <clipPath id="card3">
      <rect x="264" y="372" width="112" height="168" rx="10"/>
    </clipPath>
  </defs>

  <!-- Background -->
  <rect width="390" height="844" fill="#0A0A0F"/>

  <!-- Status bar -->
  <text x="20" y="22" fill="#F5F5F5" font-size="12" font-family="Arial" font-weight="600">9:41</text>
  <rect x="310" y="12" width="28" height="14" rx="3" fill="none" stroke="#F5F5F5" stroke-width="1.5" opacity="0.8"/>
  <rect x="312" y="14" width="20" height="10" rx="2" fill="#F5F5F5" opacity="0.8"/>
  <rect x="338" y="16" width="2" height="6" rx="1" fill="#F5F5F5" opacity="0.6"/>
  <circle cx="284" cy="19" r="3" fill="#F5F5F5" opacity="0.7"/>
  <circle cx="272" cy="19" r="3" fill="#F5F5F5" opacity="0.4"/>

  <!-- Header bar -->
  <rect x="16" y="36" width="34" height="34" rx="9" fill="#E50914"/>
  <text x="33" y="58" text-anchor="middle" fill="white" font-size="18" font-family="Arial">▶</text>
  <text x="60" y="58" fill="#F5F5F5" font-size="18" font-family="Arial" font-weight="700">KinoFlow</text>
  <rect x="308" y="40" width="66" height="26" rx="13" fill="#1E1E2E" stroke="#2A2A3E" stroke-width="0.5"/>
  <text x="341" y="57" text-anchor="middle" fill="#9E9EB3" font-size="12" font-family="Arial">🇬🇧 EN ⇄</text>

  <!-- Section label -->
  <text x="16" y="104" fill="#F5F5F5" font-size="15" font-family="Arial" font-weight="700">Featured</text>

  <!-- Hero banner -->
  <rect x="16" y="112" width="358" height="210" rx="16" fill="#1a3a5c"/>
  <!-- Hero image simulation (dark blue/purple gradient) -->
  <rect x="16" y="112" width="358" height="210" rx="16" fill="url(#hero1)"/>
  <rect x="16" y="112" width="358" height="210" rx="16" fill="#1E3A5F" opacity="0.5"/>
  <!-- Some visual noise to simulate image -->
  <rect x="60" y="140" width="280" height="90" rx="8" fill="#2A4A70" opacity="0.6"/>
  <rect x="80" y="155" width="180" height="55" rx="6" fill="#3A5A80" opacity="0.4"/>
  <!-- Gradient overlay -->
  <rect x="16" y="112" width="358" height="210" rx="16" fill="url(#hero1)"/>
  <!-- Genre chip -->
  <rect x="28" y="270" width="52" height="18" rx="9" fill="#E50914"/>
  <text x="54" y="283" text-anchor="middle" fill="white" font-size="10" font-family="Arial" font-weight="600">Sci-Fi</text>
  <rect x="86" y="270" width="64" height="18" rx="9" fill="#E50914"/>
  <text x="118" y="283" text-anchor="middle" fill="white" font-size="10" font-family="Arial" font-weight="600">Adventure</text>
  <!-- Movie title -->
  <text x="28" y="302" fill="white" font-size="20" font-family="Arial" font-weight="700">Dune: Part Two</text>
  <!-- Rating + duration -->
  <text x="28" y="318" fill="#FFD700" font-size="12" font-family="Arial">★ 8.6</text>
  <text x="72" y="318" fill="rgba(255,255,255,0.6)" font-size="12" font-family="Arial">  166 min</text>
  <!-- Book now pill -->
  <rect x="298" y="122" width="68" height="24" rx="12" fill="#E50914"/>
  <text x="332" y="138" text-anchor="middle" fill="white" font-size="11" font-family="Arial" font-weight="600">Book Now</text>

  <!-- Filter chips -->
  <rect x="16" y="336" width="36" height="26" rx="13" fill="#E50914"/>
  <text x="34" y="353" text-anchor="middle" fill="white" font-size="12" font-family="Arial" font-weight="500">All</text>
  <rect x="60" y="336" width="82" height="26" rx="13" fill="#1E1E2E" stroke="#2A2A3E" stroke-width="0.5"/>
  <text x="101" y="353" text-anchor="middle" fill="#9E9EB3" font-size="12" font-family="Arial">🇩🇪 German</text>
  <rect x="150" y="336" width="110" height="26" rx="13" fill="#1E1E2E" stroke="#2A2A3E" stroke-width="0.5"/>
  <text x="205" y="353" text-anchor="middle" fill="#9E9EB3" font-size="12" font-family="Arial">🌍 International</text>

  <!-- Section label -->
  <text x="16" y="368" fill="#F5F5F5" font-size="15" font-family="Arial" font-weight="700">Now Showing</text>

  <!-- Movie card 1 -->
  <rect x="16" y="380" width="112" height="168" rx="10" fill="#1a3a5c"/>
  <rect x="16" y="380" width="112" height="168" rx="10" fill="#2A3A50" opacity="0.8"/>
  <!-- Rating badge -->
  <rect x="20" y="384" width="36" height="16" rx="4" fill="rgba(0,0,0,0.8)"/>
  <text x="38" y="395" text-anchor="middle" fill="#FFD700" font-size="9" font-family="Arial" font-weight="600">★ 8.5</text>
  <!-- 🇩🇪 badge -->
  <rect x="92" y="384" width="32" height="16" rx="4" fill="rgba(0,0,0,0.8)"/>
  <text x="108" y="395" text-anchor="middle" font-size="10">🇩🇪</text>
  <text x="72" y="566" text-anchor="middle" fill="#F5F5F5" font-size="11" font-family="Arial" font-weight="600">Das Leben der</text>
  <text x="72" y="580" text-anchor="middle" fill="#F5F5F5" font-size="11" font-family="Arial" font-weight="600">Anderen</text>
  <text x="72" y="594" text-anchor="middle" fill="#5C5C7A" font-size="10" font-family="Arial">137 min</text>

  <!-- Movie card 2 -->
  <rect x="140" y="380" width="112" height="168" rx="10" fill="#1E3A5F"/>
  <rect x="140" y="380" width="112" height="168" rx="10" fill="#1F2A3A" opacity="0.6"/>
  <rect x="144" y="384" width="36" height="16" rx="4" fill="rgba(0,0,0,0.8)"/>
  <text x="162" y="395" text-anchor="middle" fill="#FFD700" font-size="9" font-family="Arial" font-weight="600">★ 8.9</text>
  <text x="196" y="566" text-anchor="middle" fill="#F5F5F5" font-size="11" font-family="Arial" font-weight="600">Oppenheimer</text>
  <text x="196" y="580" text-anchor="middle" fill="#5C5C7A" font-size="10" font-family="Arial">180 min</text>

  <!-- Movie card 3 -->
  <rect x="264" y="380" width="112" height="168" rx="10" fill="#2A1A3A"/>
  <rect x="264" y="380" width="112" height="168" rx="10" fill="#2A1F3A" opacity="0.6"/>
  <rect x="268" y="384" width="36" height="16" rx="4" fill="rgba(0,0,0,0.8)"/>
  <text x="286" y="395" text-anchor="middle" fill="#FFD700" font-size="9" font-family="Arial" font-weight="600">★ 7.6</text>
  <rect x="316" y="384" width="32" height="16" rx="4" fill="rgba(0,0,0,0.8)"/>
  <text x="332" y="395" text-anchor="middle" font-size="10">🇩🇪</text>
  <text x="320" y="566" text-anchor="middle" fill="#F5F5F5" font-size="11" font-family="Arial" font-weight="600">Lola rennt</text>
  <text x="320" y="580" text-anchor="middle" fill="#5C5C7A" font-size="10" font-family="Arial">81 min</text>

  <!-- Bottom nav bar -->
  <rect x="0" y="784" width="390" height="60" fill="#141420" opacity="0.98"/>
  <rect x="0" y="784" width="390" height="0.5" fill="#2A2A3E"/>
  <!-- Home icon (active) -->
  <rect x="8" y="790" width="80" height="46" rx="8" fill="transparent"/>
  <text x="48" y="810" text-anchor="middle" fill="#E50914" font-size="20" font-family="Arial">⌂</text>
  <text x="48" y="826" text-anchor="middle" fill="#E50914" font-size="10" font-family="Arial" font-weight="600">Home</text>
  <!-- Search icon -->
  <text x="146" y="810" text-anchor="middle" fill="#5C5C7A" font-size="18" font-family="Arial">⌕</text>
  <text x="146" y="826" text-anchor="middle" fill="#5C5C7A" font-size="10" font-family="Arial">Search</text>
  <!-- Tickets icon -->
  <text x="244" y="810" text-anchor="middle" fill="#5C5C7A" font-size="18" font-family="Arial">◈</text>
  <text x="244" y="826" text-anchor="middle" fill="#5C5C7A" font-size="10" font-family="Arial">Tickets</text>
  <!-- Profile icon -->
  <text x="342" y="810" text-anchor="middle" fill="#5C5C7A" font-size="18" font-family="Arial">◉</text>
  <text x="342" y="826" text-anchor="middle" fill="#5C5C7A" font-size="10" font-family="Arial">Profile</text>

  <!-- Home indicator -->
  <rect x="150" y="834" width="90" height="4" rx="2" fill="#F5F5F5" opacity="0.3"/>
</svg>
