<svg xmlns="http://www.w3.org/2000/svg" viewBox="0 0 390 844" width="390" height="844">
  <defs>
    <linearGradient id="screenGlow" x1="0" y1="0" x2="1" y2="0">
      <stop offset="0%" stop-color="#E50914" stop-opacity="0"/>
      <stop offset="50%" stop-color="#E50914" stop-opacity="0.5"/>
      <stop offset="100%" stop-color="#E50914" stop-opacity="0"/>
    </linearGradient>
  </defs>

  <!-- Background -->
  <rect width="390" height="844" fill="#0A0A0F"/>

  <!-- Status bar -->
  <text x="20" y="22" fill="#F5F5F5" font-size="12" font-family="Arial" font-weight="600">9:41</text>
  <rect x="310" y="12" width="28" height="14" rx="3" fill="none" stroke="#F5F5F5" stroke-width="1.5" opacity="0.8"/>
  <rect x="312" y="14" width="20" height="10" rx="2" fill="#F5F5F5" opacity="0.8"/>

  <!-- App bar -->
  <text x="20" y="56" fill="#F5F5F5" font-size="22" font-family="Arial">←</text>
  <text x="195" y="56" text-anchor="middle" fill="#F5F5F5" font-size="16" font-family="Arial" font-weight="700">Select Seats</text>

  <!-- Movie info card -->
  <rect x="16" y="68" width="358" height="90" rx="14" fill="#1E1E2E" stroke="#2A2A3E" stroke-width="0.5"/>
  <!-- Poster thumbnail -->
  <rect x="28" y="78" width="50" height="70" rx="6" fill="#1a3a5c"/>
  <rect x="28" y="78" width="50" height="70" rx="6" fill="#2A3A50" opacity="0.8"/>
  <!-- Movie info -->
  <text x="88" y="96" fill="#F5F5F5" font-size="14" font-family="Arial" font-weight="700">Dune: Part Two</text>
  <text x="88" y="114" fill="#9E9EB3" font-size="11" font-family="Arial">Cinestar Berlin</text>
  <text x="88" y="130" fill="#5C5C7A" font-size="11" font-family="Arial">Thu, 12 Jun 2026   20:30</text>
  <text x="88" y="146" fill="#5C5C7A" font-size="11" font-family="Arial">Saal 3 (IMAX)</text>

  <!-- Screen indicator -->
  <rect x="80" y="176" width="230" height="4" rx="2" fill="url(#screenGlow)"/>
  <text x="195" y="194" text-anchor="middle" fill="#5C5C7A" font-size="10" font-family="Arial" letter-spacing="4">S C R E E N</text>

  <!-- Seat grid — 8 rows × 10 seats -->
  <!-- Row labels + seats -->
  <!-- Helper: seats start at x=40, spacing=32, y starts at 210 spacing=34 -->

  <!-- Row A -->
  <text x="24" y="226" fill="#5C5C7A" font-size="11" font-family="Arial">A</text>
  <!-- seats A1-A10, A4 occupied, A5 occupied, A8 selected -->
  <rect x="40"  y="212" width="24" height="22" rx="4" fill="#2A2A3E" stroke="#3D3D55" stroke-width="0.5"/>
  <rect x="72"  y="212" width="24" height="22" rx="4" fill="#2A2A3E" stroke="#3D3D55" stroke-width="0.5"/>
  <rect x="104" y="212" width="24" height="22" rx="4" fill="#2A2A3E" stroke="#3D3D55" stroke-width="0.5"/>
  <rect x="136" y="212" width="24" height="22" rx="4" fill="#3D3D55" stroke="#3D3D55" stroke-width="0.5"/>
  <rect x="180" y="212" width="24" height="22" rx="4" fill="#3D3D55" stroke="#3D3D55" stroke-width="0.5"/>
  <rect x="212" y="212" width="24" height="22" rx="4" fill="#2A2A3E" stroke="#3D3D55" stroke-width="0.5"/>
  <rect x="244" y="212" width="24" height="22" rx="4" fill="#2A2A3E" stroke="#3D3D55" stroke-width="0.5"/>
  <rect x="276" y="212" width="24" height="22" rx="4" fill="#E50914" stroke="#E50914" stroke-width="0.5"/>
  <text x="288" y="227" text-anchor="middle" fill="white" font-size="11" font-family="Arial">✓</text>
  <rect x="308" y="212" width="24" height="22" rx="4" fill="#2A2A3E" stroke="#3D3D55" stroke-width="0.5"/>
  <rect x="340" y="212" width="24" height="22" rx="4" fill="#2A2A3E" stroke="#3D3D55" stroke-width="0.5"/>

  <!-- Row B -->
  <text x="24" y="260" fill="#5C5C7A" font-size="11" font-family="Arial">B</text>
  <rect x="40"  y="246" width="24" height="22" rx="4" fill="#2A2A3E" stroke="#3D3D55" stroke-width="0.5"/>
  <rect x="72"  y="246" width="24" height="22" rx="4" fill="#3D3D55" stroke="#3D3D55" stroke-width="0.5"/>
  <rect x="104" y="246" width="24" height="22" rx="4" fill="#2A2A3E" stroke="#3D3D55" stroke-width="0.5"/>
  <rect x="136" y="246" width="24" height="22" rx="4" fill="#2A2A3E" stroke="#3D3D55" stroke-width="0.5"/>
  <rect x="180" y="246" width="24" height="22" rx="4" fill="#2A2A3E" stroke="#3D3D55" stroke-width="0.5"/>
  <rect x="212" y="246" width="24" height="22" rx="4" fill="#E50914" stroke="#E50914" stroke-width="0.5"/>
  <text x="224" y="261" text-anchor="middle" fill="white" font-size="11" font-family="Arial">✓</text>
  <rect x="244" y="246" width="24" height="22" rx="4" fill="#E50914" stroke="#E50914" stroke-width="0.5"/>
  <text x="256" y="261" text-anchor="middle" fill="white" font-size="11" font-family="Arial">✓</text>
  <rect x="276" y="246" width="24" height="22" rx="4" fill="#2A2A3E" stroke="#3D3D55" stroke-width="0.5"/>
  <rect x="308" y="246" width="24" height="22" rx="4" fill="#3D3D55" stroke="#3D3D55" stroke-width="0.5"/>
  <rect x="340" y="246" width="24" height="22" rx="4" fill="#2A2A3E" stroke="#3D3D55" stroke-width="0.5"/>

  <!-- Rows C-H (simplified — just available + a few occupied) -->
  <!-- Row C -->
  <text x="24" y="294" fill="#5C5C7A" font-size="11" font-family="Arial">C</text>
  <rect x="40"  y="280" width="24" height="22" rx="4" fill="#3D3D55" stroke="#3D3D55" stroke-width="0.5"/>
  <rect x="72"  y="280" width="24" height="22" rx="4" fill="#2A2A3E" stroke="#3D3D55" stroke-width="0.5"/>
  <rect x="104" y="280" width="24" height="22" rx="4" fill="#2A2A3E" stroke="#3D3D55" stroke-width="0.5"/>
  <rect x="136" y="280" width="24" height="22" rx="4" fill="#2A2A3E" stroke="#3D3D55" stroke-width="0.5"/>
  <rect x="180" y="280" width="24" height="22" rx="4" fill="#3D3D55" stroke="#3D3D55" stroke-width="0.5"/>
  <rect x="212" y="280" width="24" height="22" rx="4" fill="#2A2A3E" stroke="#3D3D55" stroke-width="0.5"/>
  <rect x="244" y="280" width="24" height="22" rx="4" fill="#2A2A3E" stroke="#3D3D55" stroke-width="0.5"/>
  <rect x="276" y="280" width="24" height="22" rx="4" fill="#2A2A3E" stroke="#3D3D55" stroke-width="0.5"/>
  <rect x="308" y="280" width="24" height="22" rx="4" fill="#2A2A3E" stroke="#3D3D55" stroke-width="0.5"/>
  <rect x="340" y="280" width="24" height="22" rx="4" fill="#3D3D55" stroke="#3D3D55" stroke-width="0.5"/>

  <!-- Row D -->
  <text x="24" y="328" fill="#5C5C7A" font-size="11" font-family="Arial">D</text>
  <rect x="40"  y="314" width="24" height="22" rx="4" fill="#2A2A3E" stroke="#3D3D55" stroke-width="0.5"/>
  <rect x="72"  y="314" width="24" height="22" rx="4" fill="#2A2A3E" stroke="#3D3D55" stroke-width="0.5"/>
  <rect x="104" y="314" width="24" height="22" rx="4" fill="#3D3D55" stroke="#3D3D55" stroke-width="0.5"/>
  <rect x="136" y="314" width="24" height="22" rx="4" fill="#3D3D55" stroke="#3D3D55" stroke-width="0.5"/>
  <rect x="180" y="314" width="24" height="22" rx="4" fill="#2A2A3E" stroke="#3D3D55" stroke-width="0.5"/>
  <rect x="212" y="314" width="24" height="22" rx="4" fill="#2A2A3E" stroke="#3D3D55" stroke-width="0.5"/>
  <rect x="244" y="314" width="24" height="22" rx="4" fill="#2A2A3E" stroke="#3D3D55" stroke-width="0.5"/>
  <rect x="276" y="314" width="24" height="22" rx="4" fill="#2A2A3E" stroke="#3D3D55" stroke-width="0.5"/>
  <rect x="308" y="314" width="24" height="22" rx="4" fill="#2A2A3E" stroke="#3D3D55" stroke-width="0.5"/>
  <rect x="340" y="314" width="24" height="22" rx="4" fill="#2A2A3E" stroke="#3D3D55" stroke-width="0.5"/>

  <!-- Rows E-H (abbreviated) -->
  <text x="24" y="362" fill="#5C5C7A" font-size="11" font-family="Arial">E</text>
  <rect x="40" y="348" width="324" height="22" rx="4" fill="#2A2A3E" stroke="#3D3D55" stroke-width="0.5" opacity="0.4"/>
  <!-- individual seats overlay -->
  <rect x="72"  y="348" width="24" height="22" rx="4" fill="#3D3D55" stroke="#3D3D55" stroke-width="0.5"/>
  <rect x="180" y="348" width="24" height="22" rx="4" fill="#3D3D55" stroke="#3D3D55" stroke-width="0.5"/>

  <text x="24" y="396" fill="#5C5C7A" font-size="11" font-family="Arial">F</text>
  <rect x="40" y="382" width="324" height="22" rx="4" fill="#2A2A3E" stroke="#3D3D55" stroke-width="0.5" opacity="0.4"/>

  <text x="24" y="430" fill="#5C5C7A" font-size="11" font-family="Arial">G</text>
  <rect x="40" y="416" width="324" height="22" rx="4" fill="#2A2A3E" stroke="#3D3D55" stroke-width="0.5" opacity="0.4"/>
  <rect x="244" y="416" width="24" height="22" rx="4" fill="#3D3D55" stroke="#3D3D55" stroke-width="0.5"/>

  <text x="24" y="464" fill="#5C5C7A" font-size="11" font-family="Arial">H</text>
  <rect x="40" y="450" width="324" height="22" rx="4" fill="#2A2A3E" stroke="#3D3D55" stroke-width="0.5" opacity="0.4"/>

  <!-- Legend -->
  <rect x="50"  y="488" width="16" height="14" rx="3" fill="#2A2A3E" stroke="#3D3D55" stroke-width="0.5"/>
  <text x="72"  y="499" fill="#9E9EB3" font-size="11" font-family="Arial">Available</text>
  <rect x="148" y="488" width="16" height="14" rx="3" fill="#E50914"/>
  <text x="170" y="499" fill="#9E9EB3" font-size="11" font-family="Arial">Selected</text>
  <rect x="244" y="488" width="16" height="14" rx="3" fill="#3D3D55"/>
  <text x="266" y="499" fill="#9E9EB3" font-size="11" font-family="Arial">Occupied</text>

  <!-- Bottom bar -->
  <rect x="0" y="752" width="390" height="92" fill="#141420"/>
  <rect x="0" y="752" width="390" height="0.5" fill="#2A2A3E"/>
  <text x="20" y="778" fill="#9E9EB3" font-size="12" font-family="Arial">Seats: 3</text>
  <text x="20" y="800" fill="#F5F5F5" font-size="20" font-family="Arial" font-weight="700">€ 54.00</text>
  <rect x="220" y="760" width="154" height="46" rx="12" fill="#E50914"/>
  <text x="297" y="789" text-anchor="middle" fill="white" font-size="15" font-family="Arial" font-weight="700">Pay Now</text>

  <!-- Home indicator -->
  <rect x="150" y="834" width="90" height="4" rx="2" fill="#F5F5F5" opacity="0.3"/>
</svg>
